<?xml version="1.0" standalone="no"?><!DOCTYPE svg PUBLIC "-//W3C//DTD SVG 1.1//EN"
        "http://www.w3.org/Graphics/SVG/1.1/DTD/svg11.dtd">
<svg t="1666687761699" class="icon" viewBox="0 0 1024 1024" version="1.1" xmlns="http://www.w3.org/2000/svg" p-id="2702"
     xmlns:xlink="http://www.w3.org/1999/xlink" width="128" height="128">
    <path d="M265.41696 492.13312l0 50.99264c72.064 39.32288 154.71616 61.67936 242.59328 61.67936s170.528-22.35648 242.59328-61.67936l0-50.99264c-70.55232 43.47264-153.63968 68.5632-242.59328 68.5632S335.96928 535.60576 265.41696 492.13312zM508.00896 2.43072l-33.08032 33.53216L0.76928 516.5888l163.65056 0 78.94144 507.23968 154.37696 0L397.73824 759.18208 618.2784 759.18208l0 264.6464 154.37696 0 79.24864-507.23968 163.34336 0L508.00896 2.43072zM816.76416 472.48128l-81.32096 507.23968L662.3872 979.72096 662.3872 715.07328 353.632 715.07328l0 264.6464-72.19712 0-82.18112-507.23968L107.4368 472.48 508.3392 69.40416l402.71488 403.07712L816.76416 472.48128z"
          p-id="2703">
    </path>
</svg>