<?xml version="1.0" standalone="no"?><!DOCTYPE svg PUBLIC "-//W3C//DTD SVG 1.1//EN" "http://www.w3.org/Graphics/SVG/1.1/DTD/svg11.dtd"><svg t="1666937308736" class="icon" viewBox="0 0 1024 1024" version="1.1" xmlns="http://www.w3.org/2000/svg" p-id="2728" xmlns:xlink="http://www.w3.org/1999/xlink" width="128" height="128"><path d="M460.709647 518.144a49.242353 49.242353 0 1 0 98.484706 0 49.242353 49.242353 0 0 0-98.484706 0zM269.884235 698.729412a106.676706 106.676706 0 1 0 213.353412 0 106.676706 106.676706 0 0 0-213.353412 0z m268.830118 0a106.676706 106.676706 0 1 0 213.383529 0 106.676706 106.676706 0 1 0-213.383529 0zM185.825882 444.295529a106.676706 106.676706 0 1 0 213.353412 0 106.676706 106.676706 0 1 0-213.353412 0z m439.055059 0a106.676706 106.676706 0 1 0 213.353412 0 106.676706 106.676706 0 1 0-213.353412 0z m-219.557647-160.075294a106.676706 106.676706 0 1 0 213.38353 0 106.676706 106.676706 0 0 0-213.353412 0z m517.12 638.192941h-137.456941A491.279059 491.279059 0 0 0 1004.513882 512C1004.483765 239.104 784.926118 19.516235 512 19.516235A491.309176 491.309176 0 0 0 19.486118 512c0 272.956235 219.557647 492.483765 492.513882 492.483765h410.443294c22.528 0 40.990118-18.462118 40.990118-41.050353 0-22.528-18.462118-40.990118-40.990118-40.990118z m-410.413176 0C286.238118 922.443294 101.556706 737.731765 101.556706 512 101.556706 286.238118 286.268235 101.556706 512 101.556706c225.761882 0 410.443294 184.711529 410.443294 410.443294 0 225.701647-184.681412 410.443294-410.443294 410.443294z" fill="#38BFD4" p-id="2729"></path></svg>